<mxfile host="app.diagrams.net" agent="Mozilla/5.0 (Windows NT 10.0; Win64; x64) AppleWebKit/537.36 (KHTML, like Gecko) Chrome/127.0.0.0 Safari/537.36" version="24.7.7">
  <diagram name="Página-1" id="VRv0ciwhBo0WJUjTmSMM">
    <mxGraphModel dx="1914" dy="1008" grid="1" gridSize="10" guides="1" tooltips="1" connect="1" arrows="1" fold="1" page="1" pageScale="1" pageWidth="1654" pageHeight="2336" math="0" shadow="0">
      <root>
        <mxCell id="0" />
        <mxCell id="1" parent="0" />
        <mxCell id="dW8FsPnDnM4j6Q0947TS-12" style="edgeStyle=orthogonalEdgeStyle;rounded=0;orthogonalLoop=1;jettySize=auto;html=1;entryX=0.5;entryY=0;entryDx=0;entryDy=0;dashed=1;" edge="1" parent="1" source="dW8FsPnDnM4j6Q0947TS-2" target="dW8FsPnDnM4j6Q0947TS-11">
          <mxGeometry relative="1" as="geometry" />
        </mxCell>
        <mxCell id="dW8FsPnDnM4j6Q0947TS-16" style="edgeStyle=orthogonalEdgeStyle;rounded=0;orthogonalLoop=1;jettySize=auto;html=1;entryX=0;entryY=0.75;entryDx=0;entryDy=0;" edge="1" parent="1" source="dW8FsPnDnM4j6Q0947TS-2" target="dW8FsPnDnM4j6Q0947TS-14">
          <mxGeometry relative="1" as="geometry">
            <Array as="points">
              <mxPoint x="810" y="275" />
            </Array>
          </mxGeometry>
        </mxCell>
        <mxCell id="dW8FsPnDnM4j6Q0947TS-2" value="API Produtos" style="rounded=0;whiteSpace=wrap;html=1;fillColor=#d5e8d4;strokeColor=#82b366;" vertex="1" parent="1">
          <mxGeometry x="740" y="110" width="120" height="90" as="geometry" />
        </mxCell>
        <mxCell id="dW8FsPnDnM4j6Q0947TS-17" style="edgeStyle=orthogonalEdgeStyle;rounded=0;orthogonalLoop=1;jettySize=auto;html=1;entryX=0;entryY=0.5;entryDx=0;entryDy=0;" edge="1" parent="1" source="dW8FsPnDnM4j6Q0947TS-3" target="dW8FsPnDnM4j6Q0947TS-15">
          <mxGeometry relative="1" as="geometry">
            <mxPoint x="800" y="670" as="targetPoint" />
            <Array as="points">
              <mxPoint x="800" y="660" />
            </Array>
          </mxGeometry>
        </mxCell>
        <mxCell id="dW8FsPnDnM4j6Q0947TS-3" value="API Notificação" style="rounded=0;whiteSpace=wrap;html=1;fillColor=#d5e8d4;strokeColor=#82b366;" vertex="1" parent="1">
          <mxGeometry x="740" y="500" width="120" height="100" as="geometry" />
        </mxCell>
        <mxCell id="dW8FsPnDnM4j6Q0947TS-9" style="edgeStyle=orthogonalEdgeStyle;rounded=0;orthogonalLoop=1;jettySize=auto;html=1;entryX=0;entryY=0.5;entryDx=0;entryDy=0;" edge="1" parent="1" source="dW8FsPnDnM4j6Q0947TS-4" target="dW8FsPnDnM4j6Q0947TS-2">
          <mxGeometry relative="1" as="geometry" />
        </mxCell>
        <mxCell id="dW8FsPnDnM4j6Q0947TS-10" style="edgeStyle=orthogonalEdgeStyle;rounded=0;orthogonalLoop=1;jettySize=auto;html=1;entryX=0;entryY=0.5;entryDx=0;entryDy=0;" edge="1" parent="1" source="dW8FsPnDnM4j6Q0947TS-4" target="dW8FsPnDnM4j6Q0947TS-3">
          <mxGeometry relative="1" as="geometry" />
        </mxCell>
        <mxCell id="dW8FsPnDnM4j6Q0947TS-4" value="API Gateway" style="rounded=0;whiteSpace=wrap;html=1;" vertex="1" parent="1">
          <mxGeometry x="210" y="350" width="120" height="100" as="geometry" />
        </mxCell>
        <mxCell id="dW8FsPnDnM4j6Q0947TS-18" style="edgeStyle=orthogonalEdgeStyle;rounded=0;orthogonalLoop=1;jettySize=auto;html=1;entryX=0.5;entryY=1;entryDx=0;entryDy=0;" edge="1" parent="1" source="dW8FsPnDnM4j6Q0947TS-6" target="dW8FsPnDnM4j6Q0947TS-4">
          <mxGeometry relative="1" as="geometry" />
        </mxCell>
        <mxCell id="dW8FsPnDnM4j6Q0947TS-19" style="edgeStyle=orthogonalEdgeStyle;rounded=0;orthogonalLoop=1;jettySize=auto;html=1;entryX=0;entryY=0.75;entryDx=0;entryDy=0;" edge="1" parent="1" source="dW8FsPnDnM4j6Q0947TS-6" target="dW8FsPnDnM4j6Q0947TS-3">
          <mxGeometry relative="1" as="geometry" />
        </mxCell>
        <mxCell id="dW8FsPnDnM4j6Q0947TS-21" style="edgeStyle=orthogonalEdgeStyle;rounded=0;orthogonalLoop=1;jettySize=auto;html=1;entryX=0.002;entryY=0.92;entryDx=0;entryDy=0;entryPerimeter=0;" edge="1" parent="1" source="dW8FsPnDnM4j6Q0947TS-6" target="dW8FsPnDnM4j6Q0947TS-2">
          <mxGeometry relative="1" as="geometry">
            <mxPoint x="80" y="90" as="targetPoint" />
            <Array as="points">
              <mxPoint x="110" y="193" />
            </Array>
          </mxGeometry>
        </mxCell>
        <mxCell id="dW8FsPnDnM4j6Q0947TS-6" value="Service Registry" style="rounded=0;whiteSpace=wrap;html=1;" vertex="1" parent="1">
          <mxGeometry x="100" y="690" width="120" height="100" as="geometry" />
        </mxCell>
        <mxCell id="dW8FsPnDnM4j6Q0947TS-11" value="Evento RabbitMQ" style="rounded=0;whiteSpace=wrap;html=1;fillColor=#ffe6cc;strokeColor=#d79b00;" vertex="1" parent="1">
          <mxGeometry x="1320" y="390" width="120" height="60" as="geometry" />
        </mxCell>
        <mxCell id="dW8FsPnDnM4j6Q0947TS-13" style="edgeStyle=orthogonalEdgeStyle;rounded=0;orthogonalLoop=1;jettySize=auto;html=1;entryX=1.002;entryY=0.603;entryDx=0;entryDy=0;entryPerimeter=0;dashed=1;" edge="1" parent="1" source="dW8FsPnDnM4j6Q0947TS-11" target="dW8FsPnDnM4j6Q0947TS-3">
          <mxGeometry relative="1" as="geometry">
            <Array as="points">
              <mxPoint x="1380" y="560" />
            </Array>
          </mxGeometry>
        </mxCell>
        <mxCell id="dW8FsPnDnM4j6Q0947TS-14" value="Banco PostgreSQL" style="rounded=0;whiteSpace=wrap;html=1;fillColor=#dae8fc;strokeColor=#6c8ebf;" vertex="1" parent="1">
          <mxGeometry x="880" y="230" width="120" height="60" as="geometry" />
        </mxCell>
        <mxCell id="dW8FsPnDnM4j6Q0947TS-15" value="Banco PostgreSQL" style="rounded=0;whiteSpace=wrap;html=1;fillColor=#dae8fc;strokeColor=#6c8ebf;" vertex="1" parent="1">
          <mxGeometry x="900" y="630" width="120" height="60" as="geometry" />
        </mxCell>
      </root>
    </mxGraphModel>
  </diagram>
</mxfile>
